HIERARCHY
ROOT Hips
{
	OFFSET 0.000000 0.000000 0.000000 
	CHANNELS 6 Xposition Yposition Zposition Zrotation Yrotation Xrotation
	JOINT LeftUpLeg
	{
		OFFSET 1.363060 -1.794630 0.839290 
		CHANNELS 3 Zrotation Yrotation Xrotation
		JOINT LeftLeg
		{
			OFFSET 2.448110 -6.726130 0.000000 
			CHANNELS 3 Zrotation Yrotation Xrotation
			JOINT LeftFoot
			{
				OFFSET 2.562200 -7.039590 0.000000 
				CHANNELS 3 Zrotation Yrotation Xrotation
				JOINT LeftToeBase
				{
					OFFSET 0.157640 -0.433110 2.322550 
					CHANNELS 3 Zrotation Yrotation Xrotation
					End Site
					{
						OFFSET 0.000000 0.000000 0.000000 
					}
				}
			}
		}
	}
	JOINT RightUpLeg
	{
		OFFSET -1.305520 -1.794630 0.839290 
		CHANNELS 3 Zrotation Yrotation Xrotation
		JOINT RightLeg
		{
			OFFSET -2.542530 -6.985550 0.000000 
			CHANNELS 3 Zrotation Yrotation Xrotation
			JOINT RightFoot
			{
				OFFSET -2.568260 -7.056230 0.000000 
				CHANNELS 3 Zrotation Yrotation Xrotation
				JOINT RightToeBase
				{
					OFFSET -0.164730 -0.452590 2.363150 
					CHANNELS 3 Zrotation Yrotation Xrotation
					End Site
					{
						OFFSET 0.000000 0.000000 0.000000 
					}
				}
			}
		}
	}
	JOINT Spine
	{
		OFFSET 0.028270 2.035590 -0.193380 
		CHANNELS 3 Zrotation Yrotation Xrotation
		JOINT Spine1
		{
			OFFSET 0.056720 2.048850 -0.042750 
			CHANNELS 3 Zrotation Yrotation Xrotation
			JOINT Neck1
			{
				OFFSET -0.054170 1.746240 0.172020 
				CHANNELS 3 Zrotation Yrotation Xrotation
				JOINT Head
				{
					OFFSET 0.104070 1.761360 -0.123970 
					CHANNELS 3 Zrotation Yrotation Xrotation
					End Site
					{
						OFFSET 0.000000 0.000000 0.000000 
					}
				}
			}
			JOINT LeftArm
			{
				OFFSET 3.362410 1.200890 -0.311210 
				CHANNELS 3 Zrotation Yrotation Xrotation
				JOINT LeftForeArm
				{
					OFFSET 4.983000 -0.000000 -0.000000 
					CHANNELS 3 Zrotation Yrotation Xrotation
					JOINT LeftHand
					{
						OFFSET 3.483560 -0.000000 -0.000000 
						CHANNELS 3 Zrotation Yrotation Xrotation
						JOINT LeftHandIndex1
						{
							OFFSET 0.715260 -0.000000 -0.000000 
							CHANNELS 3 Zrotation Yrotation Xrotation
							End Site
							{
								OFFSET 0.000000 0.000000 0.000000 
							}
						}
					}
				}
			}
			JOINT RightArm
			{
				OFFSET -3.136600 1.374050 -0.404650 
				CHANNELS 3 Zrotation Yrotation Xrotation
				JOINT RightForeArm
				{
					OFFSET -5.241900 -0.000000 -0.000000 
					CHANNELS 3 Zrotation Yrotation Xrotation
					JOINT RightHand
					{
						OFFSET -3.444170 -0.000000 -0.000000 
						CHANNELS 3 Zrotation Yrotation Xrotation
						JOINT RightHandIndex1
						{
							OFFSET -0.622530 -0.000000 -0.000000 
							CHANNELS 3 Zrotation Yrotation Xrotation
							End Site
							{
								OFFSET 0.000000 0.000000 0.000000 
							}
						}
					}
				}
			}
		}
	}
}
MOTION
Frames: 16
Frame Time: 0.041667
6.301558 12.890581 -9.732937 85.526324 -78.519379 -70.426401 10.801892 16.857163 -57.428803 20.498835 19.879706 85.264160 4.936776 -16.952498 11.697902 0.189100 -2.801000 -7.725100 4.660819 -7.715283 -78.455143 -27.063407 -18.955988 110.230484 -0.405254 -5.031094 -19.332639 -2.088500 9.048100 -25.945900 0.114247 -1.317105 -1.425787 -3.392144 -1.178107 -4.519297 5.456849 58.824487 5.042705 147.549000 -42.181900 30.360600 -83.550281 8.164334 8.350554 141.365348 -43.949804 -107.739777 -0.718536 -0.276460 -2.006595 -7.125000 0.000000 0.000000 25.452547 18.278822 1.002709 -41.038796 41.444981 -28.988201 1.788826 1.877474 -16.909348 7.125000 0.000000 0.000000 
6.295783 12.858762 -9.522297 83.888900 -78.665849 -68.584887 12.526017 15.159522 -55.644238 19.195494 19.816944 81.083646 5.097002 -16.494942 12.585694 0.198800 -2.871200 -7.920400 3.717289 -7.997127 -78.709512 -27.130058 -18.935897 110.306479 -0.380460 -4.994602 -19.067318 -2.172700 9.217000 -26.476500 0.150998 -1.342801 -1.431729 -3.456457 -1.181771 -4.436536 5.254582 58.697001 4.885836 147.384000 -42.610500 30.495600 -83.897727 8.348106 8.499009 141.411424 -43.922389 -107.740792 -0.708843 -0.252303 -1.079974 -7.125000 0.000000 0.000000 24.522245 18.615840 -0.194070 -41.404538 41.491430 -29.448845 1.840541 1.863647 -16.087013 7.125000 0.000000 0.000000 
6.289789 12.824763 -9.310349 81.705647 -78.855648 -66.166987 14.062355 13.498675 -53.957057 17.767564 19.642232 76.695105 5.353707 -16.613294 13.837101 0.234100 -3.114300 -8.597200 2.939573 -8.434409 -79.044215 -27.188802 -18.909661 110.368960 -0.356068 -4.951918 -18.782632 -2.246700 9.362100 -26.934900 0.193352 -1.398383 -1.438370 -3.498848 -1.199451 -4.359570 5.058293 58.607642 4.729798 147.218000 -42.983800 30.619000 -84.263982 8.559979 8.650287 141.441115 -43.912517 -107.728818 -0.700624 -0.228984 -0.118056 -7.125000 0.000000 0.000000 23.689560 19.051203 -1.354381 -41.737972 41.515098 -29.841610 1.904600 1.861924 -15.483213 7.125000 0.000000 0.000000 
6.283251 12.788912 -9.097856 79.170466 -79.077626 -63.374220 15.397563 11.958100 -52.373011 16.248319 19.341153 72.190076 5.684635 -17.103897 15.395558 0.307800 -3.566700 -9.860700 2.273278 -8.952392 -79.387299 -27.235382 -18.883668 110.393595 -0.367985 -4.815844 -18.517927 -2.293500 9.452300 -27.220800 0.238600 -1.460562 -1.444962 -3.517033 -1.222565 -4.290037 4.871467 58.544689 4.573323 147.059000 -43.300800 30.724300 -84.617175 8.794383 8.819251 141.456112 -43.916739 -107.705996 -0.695442 -0.207979 0.775028 -7.125000 0.000000 0.000000 22.975423 19.561391 -2.445862 -42.054269 41.529331 -30.182219 1.976591 1.874518 -15.193220 7.125000 0.000000 0.000000 
6.276277 12.750009 -8.884927 76.414433 -79.314925 -60.314731 16.524448 10.589896 -50.926736 14.673433 18.908217 67.673731 6.056798 -17.821169 17.285013 0.413700 -4.128500 -11.438400 1.671760 -9.495330 -79.723633 -27.265376 -18.862556 110.367780 -0.400487 -4.647414 -18.321279 -2.344700 9.549800 -27.530900 0.284378 -1.512449 -1.448021 -3.512856 -1.243653 -4.217981 4.697225 58.497028 4.414816 146.910000 -43.552400 30.802500 -84.927689 9.049146 9.032815 141.463024 -43.928231 -107.676526 -0.694418 -0.190205 1.530683 -7.125000 0.000000 0.000000 22.402845 20.109261 -3.430413 -42.376600 41.552823 -30.497793 2.055457 1.906090 -15.208317 7.125000 0.000000 0.000000 
6.267995 12.708491 -8.671453 73.646089 -79.571910 -57.233604 17.447298 9.433896 -49.588841 13.087013 18.350301 63.248055 6.436104 -18.601641 19.487979 0.544800 -4.728700 -13.136400 1.099943 -10.014315 -79.973617 -27.274237 -18.850059 110.274742 -0.451624 -4.462433 -18.222476 -2.418300 9.687900 -27.971800 0.328189 -1.527932 -1.449638 -3.484539 -1.253704 -4.157216 4.545566 58.451465 4.264229 146.773000 -43.761400 30.861800 -85.173753 9.321721 9.308769 141.461537 -43.945188 -107.640593 -0.697583 -0.175710 2.133221 -7.125000 0.000000 0.000000 21.986272 20.653816 -4.289760 -42.726445 41.600949 -30.818994 2.135278 1.956532 -15.533508 7.125000 0.000000 0.000000 
6.258515 12.665557 -8.457217 70.939618 -79.853490 -54.208064 18.165087 8.509244 -48.381435 11.541280 17.686944 59.020849 6.787570 -19.269414 21.949507 0.699600 -5.346400 -14.899200 0.504924 -10.455359 -80.107111 -27.262658 -18.849465 110.105149 -0.552955 -4.167704 -18.215999 -2.484500 9.809600 -28.362500 0.367399 -1.501624 -1.449297 -3.445104 -1.248891 -4.102914 4.408675 58.410262 4.113321 146.655000 -43.905900 30.890500 -85.328891 9.594254 9.639270 141.443528 -43.972897 -107.595502 -0.703443 -0.164614 2.596532 -7.125000 0.000000 0.000000 21.741899 21.165609 -5.008642 -43.116278 41.682873 -31.165230 2.211599 2.022399 -16.085766 7.125000 0.000000 0.000000 
6.247727 12.620770 -8.240583 68.267453 -80.161486 -51.207486 18.687607 7.806405 -47.344944 10.093648 16.954297 55.110493 7.089449 -19.732028 24.587134 0.872800 -5.956400 -16.658100 -0.113178 -10.815825 -80.139193 -27.229467 -18.860336 109.863904 -0.656000 -3.895061 -18.282371 -2.575300 9.973600 -28.891200 0.400531 -1.434793 -1.445461 -3.405502 -1.228138 -4.051563 4.293948 58.360005 3.971440 146.556000 -44.012500 30.896600 -85.386525 9.854455 10.018707 141.403972 -44.015946 -107.538249 -0.709660 -0.155550 3.000605 -7.125000 0.000000 0.000000 21.669395 21.609245 -5.573999 -43.557422 41.807984 -31.558534 2.279309 2.100726 -16.794346 7.125000 0.000000 0.000000 
6.235195 12.574893 -8.020898 65.771926 -80.507274 -48.408964 19.027950 7.321808 -46.463213 8.811403 16.204898 51.632302 7.338209 -19.922286 27.160788 1.089500 -6.633500 -18.634000 -0.779193 -11.063815 -80.036127 -27.177766 -18.882394 109.560630 -0.753550 -3.656031 -18.393869 -2.679500 10.157200 -29.487200 0.425431 -1.321007 -1.440930 -3.369879 -1.188540 -4.011718 4.195578 58.316694 3.837737 146.483000 -44.078800 30.882600 -85.362871 10.100872 10.425810 141.347341 -44.070337 -107.472806 -0.715157 -0.146530 3.455863 -7.125000 0.000000 0.000000 21.761402 21.964311 -5.984605 -44.046424 41.974787 -32.002123 2.332737 2.183762 -17.580353 7.125000 0.000000 0.000000 
6.221465 12.526946 -7.795656 63.260300 -80.887741 -45.604965 19.207523 7.040352 -45.811506 7.766590 15.508160 48.728130 7.514390 -19.750118 29.424947 1.488100 -7.706700 -21.826800 -1.479597 -11.237063 -79.854636 -27.113103 -18.911842 109.214555 -0.837551 -3.453949 -18.495798 -2.787100 10.342100 -30.091800 0.442258 -1.179321 -1.433705 -3.352259 -1.135315 -3.972355 4.115643 58.280731 3.719545 146.429000 -44.114800 30.858100 -85.274686 10.325661 10.835352 141.271276 -44.139919 -107.397805 -0.718041 -0.135369 4.056464 -7.125000 0.000000 0.000000 21.996122 22.215624 -6.235154 -44.575733 42.180629 -32.494683 2.369619 2.267794 -18.387877 7.125000 0.000000 0.000000 
6.206972 12.477364 -7.564638 60.744833 -81.300666 -42.800801 19.238837 6.964532 -45.453393 7.015562 14.937791 46.531608 7.617917 -19.282248 31.054425 1.879300 -8.610000 -24.582700 -2.222031 -11.328244 -79.626898 -27.040151 -18.947584 108.841435 -0.901810 -3.289892 -18.542808 -2.887500 10.510700 -30.646800 0.450755 -1.020376 -1.422981 -3.355246 -1.071486 -3.924796 4.046683 58.261314 3.613851 146.384000 -44.115800 30.827700 -85.156224 10.537741 11.217803 141.186273 -44.217746 -107.319762 -0.717013 -0.119130 4.880385 -7.125000 0.000000 0.000000 22.351444 22.364615 -6.321743 -45.131525 42.418577 -33.022937 2.389194 2.348018 -19.158376 7.125000 0.000000 0.000000 
6.192479 12.427129 -7.327844 58.209289 -81.751887 -39.973970 19.144230 7.106096 -45.448965 6.585255 14.556750 45.159294 7.657540 -18.725084 31.812686 2.320600 -9.504200 -27.385500 -3.005593 -11.314341 -79.372635 -26.959573 -18.990068 108.447022 -0.938013 -3.174804 -18.498914 -2.968500 10.643800 -31.087900 0.451829 -0.848345 -1.408774 -3.372621 -0.999753 -3.870927 3.991995 58.268633 3.528253 146.344000 -44.101700 30.804700 -85.023183 10.737838 11.542429 141.110768 -44.289114 -107.252155 -0.711723 -0.096223 5.887646 -7.125000 0.000000 0.000000 22.797236 22.421188 -6.243551 -45.694056 42.678904 -33.566105 2.389785 2.418879 -19.906636 7.125000 0.000000 0.000000 
6.179075 12.376675 -7.085494 55.553326 -82.237318 -37.008402 18.947593 7.461515 -45.847151 6.476622 14.401742 44.670827 7.636507 -18.223283 31.604582 2.694800 -10.183700 -29.573800 -3.830717 -11.186115 -79.116380 -26.871299 -19.040084 108.033194 -0.935960 -3.127777 -18.334743 -3.029400 10.742500 -31.416100 0.446763 -0.671295 -1.388817 -3.403165 -0.922782 -3.798947 3.947176 58.314513 3.460071 146.304000 -44.064800 30.792800 -84.906611 10.946483 11.808205 141.094781 -44.312976 -107.226489 -0.705275 -0.066637 7.039854 -7.125000 0.000000 0.000000 23.307681 22.397649 -6.013533 -46.230265 42.945775 -34.088377 2.374617 2.474803 -20.575788 7.125000 0.000000 0.000000 
6.167415 12.327530 -6.838348 52.689193 -82.765319 -33.832509 18.695323 8.003656 -46.639171 6.671864 14.478203 45.066021 7.585622 -17.982009 30.401937 2.929900 -10.580700 -30.878600 -4.691800 -10.929611 -78.833379 -26.772252 -19.099122 107.588200 -0.904423 -3.121423 -18.039780 -3.063600 10.797300 -31.599300 0.436942 -0.484526 -1.364511 -3.438149 -0.840424 -3.712899 3.911393 58.402264 3.409560 146.262000 -44.000200 30.790800 -84.824716 11.176684 12.018796 141.201681 -44.234072 -107.284206 -0.700675 -0.031465 8.205676 -7.125000 0.000000 0.000000 23.855599 22.305134 -5.646468 -46.711904 43.204787 -34.558820 2.345421 2.512230 -21.163747 7.125000 0.000000 0.000000 
6.157608 12.280454 -6.586626 49.370731 -83.334995 -30.242399 18.449571 8.663769 -47.760313 7.130690 14.756773 46.255924 7.533791 -18.121306 28.430874 2.985000 -10.670700 -31.177100 -5.554677 -10.589468 -78.477506 -26.657103 -19.166471 107.092056 -0.850569 -3.143154 -17.629989 -3.083100 10.828400 -31.703300 0.423268 -0.289817 -1.339397 -3.475857 -0.754426 -3.625301 3.880123 58.530249 3.370626 146.217000 -43.923200 30.803800 -84.780473 11.434853 12.188196 141.498242 -43.991257 -107.468873 -0.701505 0.006353 9.222563 -7.125000 0.000000 0.000000 24.429194 22.156607 -5.154231 -47.116424 43.442686 -34.949028 2.308054 2.532057 -21.615292 7.125000 0.000000 0.000000 
6.149326 12.235449 -6.330653 45.321225 -83.950505 -25.999627 18.266819 9.389345 -49.120706 7.807167 15.186708 48.096836 7.500988 -18.664947 25.989282 2.870200 -10.481900 -30.551900 -6.403654 -10.172728 -77.996174 -26.520637 -19.242245 106.526045 -0.785950 -3.170668 -17.129031 -3.095100 10.847400 -31.767000 0.406752 -0.073645 -1.316818 -3.509380 -0.660912 -3.549871 3.857717 58.695121 3.346521 146.163000 -43.827900 30.833300 -84.775577 11.739017 12.347430 142.054640 -43.514269 -107.823602 -0.709088 0.043462 9.958303 -7.125000 0.000000 0.000000 25.019320 21.950876 -4.563435 -47.428076 43.650778 -35.244007 2.262879 2.535866 -21.952529 7.125000 0.000000 0.000000 
